<?xml version="1.0" encoding="iso-8859-1"?>
<!-- Generator: Adobe Illustrator 19.0.0, SVG Export Plug-In . SVG Version: 6.00 Build 0)  -->
<svg version="1.1" id="Layer_1" xmlns="http://www.w3.org/2000/svg" xmlns:xlink="http://www.w3.org/1999/xlink" x="0px" y="0px"
	 viewBox="0 0 512 512" style="enable-background:new 0 0 512 512;" xml:space="preserve">
<g>
	<g>
		<path d="M289.189,127.201c-5.289-9.673-13.115-17.036-20.02-23.533c-1.097-1.032-2.184-2.055-3.245-3.073
			c-4.174-4.008-8.349-7.826-12.386-11.516c-4.081-3.732-7.936-7.256-11.843-11.008l-10.429-10.013l-10.428,10.014
			c-3.909,3.753-7.766,7.28-11.849,11.013c-4.035,3.69-8.207,7.504-12.38,11.51c-1.061,1.02-2.149,2.042-3.246,3.074
			c-6.904,6.496-14.729,13.859-20.018,23.531l0.001-0.001c-7.664,14.013-7.393,30.294,0.724,43.552
			c7.985,13.042,20.439,20.284,35.064,20.393c0.11,0,0.22,0.001,0.33,0.001c2.265,0,4.517-0.197,6.746-0.542v9.211h30.114v-9.22
			c2.338,0.363,4.701,0.563,7.074,0.55c14.628-0.109,27.082-7.351,35.067-20.394C296.582,157.493,296.852,141.212,289.189,127.201z
			 M262.783,155.026c-2.558,4.177-5.43,5.973-9.608,6.003c-2.797,0.038-5.543-0.802-8.083-2.405l-13.824-8.66l-13.863,8.684
			c-2.472,1.56-5.215,2.383-7.945,2.383c-0.034,0-0.068,0-0.102-0.001c-4.175-0.03-7.048-1.826-9.606-6.003
			c-3.188-5.206-1.752-10.148,0.014-13.376l0.001-0.001c2.991-5.47,8.706-10.848,14.233-16.048c1.173-1.103,2.334-2.196,3.467-3.284
			c3.907-3.752,7.762-7.276,11.843-11.008c0.649-0.593,1.302-1.19,1.958-1.79c0.653,0.598,1.304,1.192,1.951,1.784
			c4.083,3.733,7.94,7.26,11.849,11.012c1.133,1.088,2.294,2.181,3.466,3.284c5.527,5.2,11.243,10.578,14.235,16.05
			C264.535,144.878,265.971,149.82,262.783,155.026z"/>
	</g>
</g>
<g>
	<g>
		<path d="M439.547,427.9V296.306c0-24.952-10.612-48.862-29.115-65.601l-74.127-67.062V0h-210.07v46.08L49.322,59.851
			l53.402,298.216l113.487-21.001v28.544c-0.022,3.563,0.539,41.082,32.648,61.599v0.69h-25.556V512h239.375v-84.1H439.547z
			 M127.029,322.944L84.273,84.186l41.962-7.512v226.197H235.5L127.029,322.944z M156.348,272.756V30.114h0.001h149.84v187.797
			l-27.815-27.043l-10.411,8.633c-2.434,2.018-23.843,20.511-26.093,47.988c-0.712,8.693,0.573,17.136,3.794,25.267H156.348z
			 M246.324,365.922l0.001-34.429l39.071-7.23l-0.372-2.012c4.651,4.762,8.505,8.5,11.605,11.377
			c-6.79,15.708-13.728,44.362,6.506,73.871l24.837-17.031c-17.296-25.223-1.294-50.006-0.099-51.785l9.416-12.353l-13.096-8.642
			c-1.061-0.798-13.922-10.745-43.244-44.51c-6.701-7.716-9.669-15.265-9.075-23.079c0.498-6.549,3.384-12.523,6.52-17.211
			l96.623,93.939l20.992-21.592l-59.704-58.046v-42.937l53.925,48.785c12.204,11.04,19.204,26.811,19.204,43.269V427.9H278.973
			v-19.242l-8.765-4.032C246.981,393.941,246.338,367.995,246.324,365.922z M253.417,481.886v-23.871h179.146v23.871H253.417z"/>
	</g>
</g>
<g>
</g>
<g>
</g>
<g>
</g>
<g>
</g>
<g>
</g>
<g>
</g>
<g>
</g>
<g>
</g>
<g>
</g>
<g>
</g>
<g>
</g>
<g>
</g>
<g>
</g>
<g>
</g>
<g>
</g>
</svg>
