<?xml version="1.0" encoding="iso-8859-1"?>
<!-- Generator: Adobe Illustrator 19.0.0, SVG Export Plug-In . SVG Version: 6.00 Build 0)  -->
<svg version="1.1" id="Layer_1" xmlns="http://www.w3.org/2000/svg" xmlns:xlink="http://www.w3.org/1999/xlink" x="0px" y="0px"
	 viewBox="0 0 512 512" style="enable-background:new 0 0 512 512;" xml:space="preserve">
<g>
	<g>
		<path d="M441.638,148.223c3.447,0.968,7.075,1.497,10.827,1.497c22.111,0,40.101-17.989,40.101-40.101
			c0-22.111-17.989-40.1-40.101-40.1c-22.111,0-40.1,17.988-40.1,40.1c0,3.277,0.404,6.46,1.149,9.51l-75.929,37.372l-58.698-83.854
			c10.115-7.287,16.718-19.156,16.718-32.547c0-22.111-17.989-40.1-40.1-40.1c-22.111,0-40.1,17.989-40.1,40.101
			c0,13.308,6.521,25.115,16.531,32.413l-58.791,83.987L97.277,119.16c1.523-4.232,2.358-8.79,2.358-13.54
			c0-22.111-17.988-40.1-40.1-40.1c-22.111,0-40.101,17.988-40.101,40.1c0,22.111,17.989,40.101,40.101,40.101
			c2.864,0,5.657-0.308,8.353-0.881l46.658,131.202v35.092H50.773V512h410.453V311.133h-65.195v-34.664L441.638,148.223z
			 M452.465,99.52c5.569,0,10.101,4.53,10.101,10.1c0,5.569-4.531,10.101-10.101,10.101c-5.569,0-10.1-4.531-10.1-10.101
			S446.896,99.52,452.465,99.52z M59.536,115.72c-5.57,0-10.101-4.532-10.101-10.101c0-5.569,4.531-10.1,10.101-10.1
			c5.569,0,10.1,4.53,10.1,10.1C69.636,111.188,65.106,115.72,59.536,115.72z M255.505,30c5.569,0,10.101,4.531,10.101,10.101
			s-4.531,10.1-10.101,10.1c-5.569,0-10.1-4.53-10.1-10.1S249.936,30,255.505,30z M431.226,341.133V482H80.773V341.133H431.226z
			 M144.546,308.816v-20.363h221.485v20.363H144.546z M370.599,258.453H140.132l-36.539-102.748l79.38,39.069l72.392-103.417
			l72.393,103.417l79.38-39.069L370.599,258.453z"/>
	</g>
</g>
<g>
	<g>
		<polygon points="233.188,368.705 209.578,437.942 200.028,412.608 215.813,368.838 195.651,368.838 186.102,398.946 
			176.552,368.838 156.523,368.838 172.042,412.608 162.757,437.942 139.015,368.705 115.405,368.705 152.942,462.878 
			171.246,462.878 186.102,426.005 201.09,462.878 219.261,462.878 256.93,368.705 		"/>
	</g>
</g>
<g>
	<g>
		<rect x="265.15" y="368.7" width="21.753" height="94.17"/>
	</g>
</g>
<g>
	<g>
		<polygon points="365.824,368.705 365.824,424.015 321.921,368.705 304.943,368.705 304.943,462.878 326.696,462.878 
			326.696,409.027 370.068,462.878 387.577,462.878 387.577,368.705 		"/>
	</g>
</g>
<g>
</g>
<g>
</g>
<g>
</g>
<g>
</g>
<g>
</g>
<g>
</g>
<g>
</g>
<g>
</g>
<g>
</g>
<g>
</g>
<g>
</g>
<g>
</g>
<g>
</g>
<g>
</g>
<g>
</g>
</svg>
